<?xml version="1.0" standalone="no"?>
<svg xmlns:xlink="http://www.w3.org/1999/xlink" id="wave" style="transform:rotate(180deg); transition: 0.3s" viewBox="0 0 1440 180" version="1.1" xmlns="http://www.w3.org/2000/svg"><defs><linearGradient id="sw-gradient-0" x1="0" x2="0" y1="1" y2="0"><stop stop-color="rgba(138, 46, 255, 1)" offset="0%"/><stop stop-color="rgba(204, 224, 255, 1)" offset="100%"/></linearGradient></defs><path style="transform:translate(0, 0px); opacity:1" fill="url(#sw-gradient-0)" d="M0,36L40,45C80,54,160,72,240,87C320,102,400,114,480,120C560,126,640,126,720,111C800,96,880,66,960,54C1040,42,1120,48,1200,42C1280,36,1360,18,1440,21C1520,24,1600,48,1680,63C1760,78,1840,84,1920,81C2000,78,2080,66,2160,72C2240,78,2320,102,2400,114C2480,126,2560,126,2640,132C2720,138,2800,150,2880,135C2960,120,3040,78,3120,69C3200,60,3280,84,3360,96C3440,108,3520,108,3600,96C3680,84,3760,60,3840,54C3920,48,4000,60,4080,78C4160,96,4240,120,4320,126C4400,132,4480,120,4560,117C4640,114,4720,120,4800,117C4880,114,4960,102,5040,105C5120,108,5200,126,5280,129C5360,132,5440,120,5520,102C5600,84,5680,60,5720,48L5760,36L5760,180L5720,180C5680,180,5600,180,5520,180C5440,180,5360,180,5280,180C5200,180,5120,180,5040,180C4960,180,4880,180,4800,180C4720,180,4640,180,4560,180C4480,180,4400,180,4320,180C4240,180,4160,180,4080,180C4000,180,3920,180,3840,180C3760,180,3680,180,3600,180C3520,180,3440,180,3360,180C3280,180,3200,180,3120,180C3040,180,2960,180,2880,180C2800,180,2720,180,2640,180C2560,180,2480,180,2400,180C2320,180,2240,180,2160,180C2080,180,2000,180,1920,180C1840,180,1760,180,1680,180C1600,180,1520,180,1440,180C1360,180,1280,180,1200,180C1120,180,1040,180,960,180C880,180,800,180,720,180C640,180,560,180,480,180C400,180,320,180,240,180C160,180,80,180,40,180L0,180Z"/></svg>