<?xml version="1.0" standalone="no"?>
<svg xmlns:xlink="http://www.w3.org/1999/xlink" id="wave" style="transform:rotate(0deg); transition: 0.3s" viewBox="0 0 1440 490" version="1.1" xmlns="http://www.w3.org/2000/svg"><defs><linearGradient id="sw-gradient-0" x1="0" x2="0" y1="1" y2="0"><stop stop-color="rgba(138, 46, 255, 1)" offset="0%"/><stop stop-color="rgba(204, 224, 255, 1)" offset="100%"/></linearGradient></defs><path style="transform:translate(0, 0px); opacity:1" fill="url(#sw-gradient-0)" d="M0,49L24,65.3C48,82,96,114,144,171.5C192,229,240,310,288,351.2C336,392,384,392,432,392C480,392,528,392,576,343C624,294,672,196,720,204.2C768,212,816,327,864,318.5C912,310,960,180,1008,106.2C1056,33,1104,16,1152,8.2C1200,0,1248,0,1296,16.3C1344,33,1392,65,1440,106.2C1488,147,1536,196,1584,187.8C1632,180,1680,114,1728,73.5C1776,33,1824,16,1872,73.5C1920,131,1968,261,2016,310.3C2064,359,2112,327,2160,310.3C2208,294,2256,294,2304,285.8C2352,278,2400,261,2448,277.7C2496,294,2544,343,2592,326.7C2640,310,2688,229,2736,163.3C2784,98,2832,49,2880,24.5C2928,0,2976,0,3024,65.3C3072,131,3120,261,3168,310.3C3216,359,3264,327,3312,285.8C3360,245,3408,196,3432,171.5L3456,147L3456,490L3432,490C3408,490,3360,490,3312,490C3264,490,3216,490,3168,490C3120,490,3072,490,3024,490C2976,490,2928,490,2880,490C2832,490,2784,490,2736,490C2688,490,2640,490,2592,490C2544,490,2496,490,2448,490C2400,490,2352,490,2304,490C2256,490,2208,490,2160,490C2112,490,2064,490,2016,490C1968,490,1920,490,1872,490C1824,490,1776,490,1728,490C1680,490,1632,490,1584,490C1536,490,1488,490,1440,490C1392,490,1344,490,1296,490C1248,490,1200,490,1152,490C1104,490,1056,490,1008,490C960,490,912,490,864,490C816,490,768,490,720,490C672,490,624,490,576,490C528,490,480,490,432,490C384,490,336,490,288,490C240,490,192,490,144,490C96,490,48,490,24,490L0,490Z"/></svg>