<?xml version="1.0" standalone="no"?>
<svg xmlns:xlink="http://www.w3.org/1999/xlink" id="wave" style="transform:rotate(0deg); transition: 0.3s" viewBox="0 0 1440 490" version="1.1" xmlns="http://www.w3.org/2000/svg"><defs><linearGradient id="sw-gradient-0" x1="0" x2="0" y1="1" y2="0"><stop stop-color="rgba(138, 46, 255, 1)" offset="0%"/><stop stop-color="rgba(204, 224, 255, 1)" offset="100%"/></linearGradient></defs><path style="transform:translate(0, 0px); opacity:1" fill="url(#sw-gradient-0)" d="M0,98L60,122.5C120,147,240,196,360,236.8C480,278,600,310,720,326.7C840,343,960,343,1080,302.2C1200,261,1320,180,1440,147C1560,114,1680,131,1800,114.3C1920,98,2040,49,2160,57.2C2280,65,2400,131,2520,171.5C2640,212,2760,229,2880,220.5C3000,212,3120,180,3240,196C3360,212,3480,278,3600,310.3C3720,343,3840,343,3960,359.3C4080,376,4200,408,4320,367.5C4440,327,4560,212,4680,187.8C4800,163,4920,229,5040,261.3C5160,294,5280,294,5400,261.3C5520,229,5640,163,5760,147C5880,131,6000,163,6120,212.3C6240,261,6360,327,6480,343C6600,359,6720,327,6840,318.5C6960,310,7080,327,7200,318.5C7320,310,7440,278,7560,285.8C7680,294,7800,343,7920,351.2C8040,359,8160,327,8280,277.7C8400,229,8520,163,8580,130.7L8640,98L8640,490L8580,490C8520,490,8400,490,8280,490C8160,490,8040,490,7920,490C7800,490,7680,490,7560,490C7440,490,7320,490,7200,490C7080,490,6960,490,6840,490C6720,490,6600,490,6480,490C6360,490,6240,490,6120,490C6000,490,5880,490,5760,490C5640,490,5520,490,5400,490C5280,490,5160,490,5040,490C4920,490,4800,490,4680,490C4560,490,4440,490,4320,490C4200,490,4080,490,3960,490C3840,490,3720,490,3600,490C3480,490,3360,490,3240,490C3120,490,3000,490,2880,490C2760,490,2640,490,2520,490C2400,490,2280,490,2160,490C2040,490,1920,490,1800,490C1680,490,1560,490,1440,490C1320,490,1200,490,1080,490C960,490,840,490,720,490C600,490,480,490,360,490C240,490,120,490,60,490L0,490Z"/></svg>