<?xml version="1.0" standalone="no"?>
<svg xmlns:xlink="http://www.w3.org/1999/xlink" id="wave" style="transform:rotate(180deg); transition: 0.3s" viewBox="0 0 1440 120" version="1.1" xmlns="http://www.w3.org/2000/svg"><defs><linearGradient id="sw-gradient-0" x1="0" x2="0" y1="1" y2="0"><stop stop-color="rgba(138, 46, 255, 1)" offset="0%"/><stop stop-color="rgba(204, 224, 255, 1)" offset="100%"/></linearGradient></defs><path style="transform:translate(0, 0px); opacity:1" fill="url(#sw-gradient-0)" d="M0,24L60,30C120,36,240,48,360,58C480,68,600,76,720,80C840,84,960,84,1080,74C1200,64,1320,44,1440,36C1560,28,1680,32,1800,28C1920,24,2040,12,2160,14C2280,16,2400,32,2520,42C2640,52,2760,56,2880,54C3000,52,3120,44,3240,48C3360,52,3480,68,3600,76C3720,84,3840,84,3960,88C4080,92,4200,100,4320,90C4440,80,4560,52,4680,46C4800,40,4920,56,5040,64C5160,72,5280,72,5400,64C5520,56,5640,40,5760,36C5880,32,6000,40,6120,52C6240,64,6360,80,6480,84C6600,88,6720,80,6840,78C6960,76,7080,80,7200,78C7320,76,7440,68,7560,70C7680,72,7800,84,7920,86C8040,88,8160,80,8280,68C8400,56,8520,40,8580,32L8640,24L8640,120L8580,120C8520,120,8400,120,8280,120C8160,120,8040,120,7920,120C7800,120,7680,120,7560,120C7440,120,7320,120,7200,120C7080,120,6960,120,6840,120C6720,120,6600,120,6480,120C6360,120,6240,120,6120,120C6000,120,5880,120,5760,120C5640,120,5520,120,5400,120C5280,120,5160,120,5040,120C4920,120,4800,120,4680,120C4560,120,4440,120,4320,120C4200,120,4080,120,3960,120C3840,120,3720,120,3600,120C3480,120,3360,120,3240,120C3120,120,3000,120,2880,120C2760,120,2640,120,2520,120C2400,120,2280,120,2160,120C2040,120,1920,120,1800,120C1680,120,1560,120,1440,120C1320,120,1200,120,1080,120C960,120,840,120,720,120C600,120,480,120,360,120C240,120,120,120,60,120L0,120Z"/></svg>