<?xml version="1.0" standalone="no"?>
<svg xmlns:xlink="http://www.w3.org/1999/xlink" id="wave" style="transform:rotate(0deg); transition: 0.3s" viewBox="0 0 1440 490" version="1.1" xmlns="http://www.w3.org/2000/svg"><defs><linearGradient id="sw-gradient-0" x1="0" x2="0" y1="1" y2="0"><stop stop-color="rgba(138, 46, 255, 1)" offset="0%"/><stop stop-color="rgba(204, 224, 255, 1)" offset="100%"/></linearGradient></defs><path style="transform:translate(0, 0px); opacity:1" fill="url(#sw-gradient-0)" d="M0,196L48,196C96,196,192,196,288,228.7C384,261,480,327,576,367.5C672,408,768,425,864,416.5C960,408,1056,376,1152,302.2C1248,229,1344,114,1440,122.5C1536,131,1632,261,1728,277.7C1824,294,1920,196,2016,163.3C2112,131,2208,163,2304,147C2400,131,2496,65,2592,32.7C2688,0,2784,0,2880,65.3C2976,131,3072,261,3168,302.2C3264,343,3360,294,3456,236.8C3552,180,3648,114,3744,114.3C3840,114,3936,180,4032,236.8C4128,294,4224,343,4320,375.7C4416,408,4512,425,4608,416.5C4704,408,4800,376,4896,367.5C4992,359,5088,376,5184,383.8C5280,392,5376,392,5472,351.2C5568,310,5664,229,5760,196C5856,163,5952,180,6048,196C6144,212,6240,229,6336,220.5C6432,212,6528,180,6624,171.5C6720,163,6816,180,6864,187.8L6912,196L6912,490L6864,490C6816,490,6720,490,6624,490C6528,490,6432,490,6336,490C6240,490,6144,490,6048,490C5952,490,5856,490,5760,490C5664,490,5568,490,5472,490C5376,490,5280,490,5184,490C5088,490,4992,490,4896,490C4800,490,4704,490,4608,490C4512,490,4416,490,4320,490C4224,490,4128,490,4032,490C3936,490,3840,490,3744,490C3648,490,3552,490,3456,490C3360,490,3264,490,3168,490C3072,490,2976,490,2880,490C2784,490,2688,490,2592,490C2496,490,2400,490,2304,490C2208,490,2112,490,2016,490C1920,490,1824,490,1728,490C1632,490,1536,490,1440,490C1344,490,1248,490,1152,490C1056,490,960,490,864,490C768,490,672,490,576,490C480,490,384,490,288,490C192,490,96,490,48,490L0,490Z"/></svg>