<?xml version="1.0" standalone="no"?>
<svg xmlns:xlink="http://www.w3.org/1999/xlink" id="wave" style="transform:rotate(0deg); transition: 0.3s" viewBox="0 0 1440 160" version="1.1" xmlns="http://www.w3.org/2000/svg"><defs><linearGradient id="sw-gradient-0" x1="0" x2="0" y1="1" y2="0"><stop stop-color="rgba(138, 46, 255, 1)" offset="0%"/><stop stop-color="rgba(138, 46, 255, 1)" offset="100%"/></linearGradient></defs><path style="transform:translate(0, 0px); opacity:1" fill="url(#sw-gradient-0)" d="M0,32L120,48C240,64,480,96,720,90.7C960,85,1200,43,1440,45.3C1680,48,1920,96,2160,120C2400,144,2640,144,2880,125.3C3120,107,3360,69,3600,64C3840,59,4080,85,4320,82.7C4560,80,4800,48,5040,45.3C5280,43,5520,69,5760,82.7C6000,96,6240,96,6480,88C6720,80,6960,64,7200,53.3C7440,43,7680,37,7920,50.7C8160,64,8400,96,8640,109.3C8880,123,9120,117,9360,106.7C9600,96,9840,80,10080,64C10320,48,10560,32,10800,24C11040,16,11280,16,11520,18.7C11760,21,12000,27,12240,26.7C12480,27,12720,21,12960,34.7C13200,48,13440,80,13680,88C13920,96,14160,80,14400,64C14640,48,14880,32,15120,29.3C15360,27,15600,37,15840,50.7C16080,64,16320,80,16560,90.7C16800,101,17040,107,17160,109.3L17280,112L17280,160L17160,160C17040,160,16800,160,16560,160C16320,160,16080,160,15840,160C15600,160,15360,160,15120,160C14880,160,14640,160,14400,160C14160,160,13920,160,13680,160C13440,160,13200,160,12960,160C12720,160,12480,160,12240,160C12000,160,11760,160,11520,160C11280,160,11040,160,10800,160C10560,160,10320,160,10080,160C9840,160,9600,160,9360,160C9120,160,8880,160,8640,160C8400,160,8160,160,7920,160C7680,160,7440,160,7200,160C6960,160,6720,160,6480,160C6240,160,6000,160,5760,160C5520,160,5280,160,5040,160C4800,160,4560,160,4320,160C4080,160,3840,160,3600,160C3360,160,3120,160,2880,160C2640,160,2400,160,2160,160C1920,160,1680,160,1440,160C1200,160,960,160,720,160C480,160,240,160,120,160L0,160Z"/></svg>