<?xml version="1.0" standalone="no"?>
<svg xmlns:xlink="http://www.w3.org/1999/xlink" id="wave" style="transform:rotate(180deg); transition: 0.3s" viewBox="0 0 1440 390" version="1.1" xmlns="http://www.w3.org/2000/svg"><defs><linearGradient id="sw-gradient-0" x1="0" x2="0" y1="1" y2="0"><stop stop-color="rgba(138, 46, 255, 1)" offset="0%"/><stop stop-color="rgba(204, 224, 255, 1)" offset="100%"/></linearGradient></defs><path style="transform:translate(0, 0px); opacity:1" fill="url(#sw-gradient-0)" d="M0,39L48,52C96,65,192,91,288,136.5C384,182,480,247,576,279.5C672,312,768,312,864,312C960,312,1056,312,1152,273C1248,234,1344,156,1440,162.5C1536,169,1632,260,1728,253.5C1824,247,1920,143,2016,84.5C2112,26,2208,13,2304,6.5C2400,0,2496,0,2592,13C2688,26,2784,52,2880,84.5C2976,117,3072,156,3168,149.5C3264,143,3360,91,3456,58.5C3552,26,3648,13,3744,58.5C3840,104,3936,208,4032,247C4128,286,4224,260,4320,247C4416,234,4512,234,4608,227.5C4704,221,4800,208,4896,221C4992,234,5088,273,5184,260C5280,247,5376,182,5472,130C5568,78,5664,39,5760,19.5C5856,0,5952,0,6048,52C6144,104,6240,208,6336,247C6432,286,6528,260,6624,227.5C6720,195,6816,156,6864,136.5L6912,117L6912,390L6864,390C6816,390,6720,390,6624,390C6528,390,6432,390,6336,390C6240,390,6144,390,6048,390C5952,390,5856,390,5760,390C5664,390,5568,390,5472,390C5376,390,5280,390,5184,390C5088,390,4992,390,4896,390C4800,390,4704,390,4608,390C4512,390,4416,390,4320,390C4224,390,4128,390,4032,390C3936,390,3840,390,3744,390C3648,390,3552,390,3456,390C3360,390,3264,390,3168,390C3072,390,2976,390,2880,390C2784,390,2688,390,2592,390C2496,390,2400,390,2304,390C2208,390,2112,390,2016,390C1920,390,1824,390,1728,390C1632,390,1536,390,1440,390C1344,390,1248,390,1152,390C1056,390,960,390,864,390C768,390,672,390,576,390C480,390,384,390,288,390C192,390,96,390,48,390L0,390Z"/></svg>